<svg xmlns="http://www.w3.org/2000/svg" width="17" height="18" fill="none">
  <path fill="white" fill-rule="evenodd"
    d="M13.438 15.8a7.254 7.254 0 0 0 1.525-1.279 6.376 6.376 0 0 1-1.525 1.28Zm-2.269 1.204a7.975 7.975 0 0 0 1.836-.792c-.067.036-.024 0 .263-.174.275-.168.538-.354.787-.559l.039-.035c.497-.411.944-.879 1.333-1.394l-.464.471a9.377 9.377 0 0 0 1.329-1.925 8.058 8.058 0 0 1-1.797 2.262c.483-.488.923-1.019 1.313-1.584-1.498 2.04-5.897 3.96-8.496 3.01-.093-.037.032-.04.129-.041.05 0 .094-.002.095-.007 4.25.255 7.92-2.962 8.256-7.236v-.467c.077-3.7-2.417-6.953-5.989-7.815-3.572-.863-7.259.899-8.856 4.231-2.181 4.135-.463 9.533 3.806 11.667 2.005 1.212 5.009 1.073 7.049.214-.216.067-.425.123-.633.174Zm-1.808.329c.64-.091 1.214-.186 1.808-.329a8.935 8.935 0 0 1-1.808.329Zm-4.608-.717a8.571 8.571 0 0 0 2.107.737 8.37 8.37 0 0 1-2.449-.955c.11.079.224.152.342.218Zm6.066-11.778a1.25 1.25 0 0 0-1.05-.162l.004.012c-.77.297-1.25 1.231-1.537 1.956a6.15 6.15 0 0 0-.519 2.772c.102.95.574 2.064 1.675 2.028a1.904 1.904 0 0 0 1.836-1.62c.051-.392-.031-.443-.425-.614-.149-.063-.432-.099-.432.135a.886.886 0 0 0 .086.242c.023.084.037.17.044.257a1.09 1.09 0 0 1-.349.992 1.071 1.071 0 0 1-1.02.228c-.385-.091-.503-.57-.546-.911a1.595 1.595 0 0 1-.02-.677c.038-.074.252-.125.426-.166.079-.019.15-.036.192-.052a5.188 5.188 0 0 0 2.095-1.418c.515-.598 1.124-1.481.543-2.233-.281-.32-.622-.581-1.003-.769Zm-4.855 8.88a1.913 1.913 0 0 0-.834.066 1.017 1.017 0 0 0-.298.188 1.12 1.12 0 0 1-.268.177c-.216.09-.393-.024-.31-.261.02-.06.056-.11.091-.162.032-.045.063-.091.086-.144l.022-.05c.041-.099.087-.206.127-.31.19-.561.338-1.136.444-1.719.511-2.376 1.443-7.128 1.443-7.128-.384.362-.732.76-1.042 1.188-.298.483-.44 1.584-.31 1.723a.42.42 0 0 1 .082.59c-.145.21-.762-.032-1.006-.246-.833-.734-.081-1.62.4-2.188l.028-.033c.294-.346 1.032-.939 1.488-1.306.203-.163.35-.281.38-.314 0-.06.255-.574.365-.792.169-.392.507-.684.916-.792.13-.036.437-.115.539 0 .095.107-.025.379-.086.518l-.012.028a7.241 7.241 0 0 0-.437 1.315 778.401 778.401 0 0 1-.786 3.14 172.668 172.668 0 0 1-.786 3.125c-.142.53-.299 1.058-.484 1.584a11.72 11.72 0 0 1-.566 1.446c.566-.137 1.14-.099 1.715-.06.324.02.648.042.97.032.432-.008.86-.087 1.266-.234.055-.02.127-.063.205-.11.261-.153.6-.353.66.015a1.154 1.154 0 0 1-.735 1.284 2.203 2.203 0 0 1-1.718-.151 4.796 4.796 0 0 0-1.55-.424v.004Zm5.005-8.278c.318.424-.067 1.188-.276 1.584v-.008a3.55 3.55 0 0 1-2.083 1.98 6.713 6.713 0 0 1 1.32-3.04c.179-.229.725-.933 1.039-.516Z"
    clip-rule="evenodd" />
</svg>
